<svg width="119.4mm" height="55.25mm" version="1.1" viewBox="0 0 119.4 55.25" xmlns="http://www.w3.org/2000/svg">
 <g transform="translate(-53.61 -47.9)">
  <g transform="matrix(.2646 0 0 .2646 53.61 3.247)" data-name="Layer 11">
   <path class="cls-17" d="m341.6 333c-9.94-25.55-35.33-22.99-46.68-10.25-40.78-20.91-72.4 4.03-72.4 4.03-27.84-24.41-37.75 0.81-37.75 0.81-21.65-38.86-47.28-5.77-47.28-5.77-1.74-27.24-32.72-37.97-50.39-32.16 2.19-26.29-18.94-27.54-25.69-21.45-0.08-21.88-17.33-20.74-20.1-12.27-9.84-20.26-26.41-19.29-35.27-16.98-3.57 0.92-6.03 4.16-6.03 7.84v94.3l341.6-8.11z" fill="#e1dbfd"/>
   <path class="cls-12" d="m28.81 258.8 8.57 5.16s5.61-10.89 10.44-25.17l-5.9 6.43-13.11 13.57z" fill="#8c7cf6"/>
   <path class="cls-25" d="m41.92 245.2c12.62-11.51 25.75-32.26 22.8-54.9-2.64-20.19-17.48-30.82-21.92-10.92-3.73 16.73 3.98 36.41-0.88 65.82z" fill="#5d4dc3"/>
   <path class="cls-9" d="m47.01 206.5c-2.45-11.41-4.97-23.14-1.44-34.33 0.87-1.33 1.85-2.25 2.89-2.8-5.14 11.75-2.41 24.47 0.24 36.79 2.05 9.55 4.15 19.28 2.61 28.64-0.77 1.03-1.56 2.02-2.36 2.98 2.66-9.88 0.4-20.39-1.94-31.29z" fill="#7361e5"/>
   <path class="cls-12" d="m25.02 259c0.65-19 4.78-42.73-1.34-38.95-6.13 3.78-15.82 25.81-1.6 37.22z" fill="#8c7cf6"/>
   <g fill="#7361e5">
    <path class="cls-9" d="m372.9 337.7h-0.15c-0.69-0.08-1.18-0.7-1.1-1.39 2.95-25.5-10.16-49.65-10.29-49.89-0.33-0.6-0.11-1.36 0.49-1.7 0.61-0.33 1.37-0.11 1.7 0.49 0.56 1.01 13.62 25.07 10.58 51.38-0.07 0.64-0.61 1.11-1.24 1.11z"/>
    <path class="cls-9" d="m379.2 339c-0.31 0-0.62-0.11-0.86-0.34-0.5-0.48-0.52-1.27-0.04-1.77 16.45-17.31 24.11-34.47 24.19-34.65 0.28-0.63 1.02-0.92 1.65-0.64s0.92 1.02 0.64 1.65c-0.08 0.18-7.89 17.72-24.66 35.36-0.25 0.26-0.58 0.39-0.91 0.39z"/>
    <path class="cls-9" d="m419.2 317.1h-0.08c-0.69-0.04-1.21-0.63-1.17-1.32l1.53-25.05c0.04-0.69 0.65-1.2 1.32-1.17 0.69 0.04 1.21 0.63 1.17 1.32l-1.53 25.05c-0.04 0.66-0.59 1.17-1.25 1.17z"/>
    <path class="cls-9" d="m392.6 340.1c-0.44 0-0.87-0.23-1.1-0.65-0.33-0.6-0.11-1.36 0.49-1.7 0.24-0.13 23.8-13.28 37.4-39.35 0.32-0.61 1.07-0.85 1.69-0.53s0.85 1.07 0.53 1.69c-13.97 26.77-38.17 40.26-38.42 40.39-0.19 0.1-0.4 0.15-0.6 0.15z"/>
    <path class="cls-9" d="m408 344.5c-0.44 0-0.86-0.23-1.09-0.63-0.34-0.6-0.13-1.36 0.47-1.7 0.15-0.09 15.5-8.81 25.15-18.08 0.5-0.48 1.29-0.46 1.77 0.04s0.46 1.29-0.04 1.77c-9.88 9.49-25.01 18.1-25.65 18.46-0.19 0.11-0.41 0.16-0.61 0.16z"/>
    <path class="cls-9" d="m393.9 320.6c-0.62 0-1.15-0.45-1.24-1.08-0.11-0.81-2.6-19.96 4.96-36.7 0.28-0.63 1.02-0.91 1.65-0.62 0.63 0.28 0.91 1.02 0.62 1.65-7.26 16.07-4.79 35.14-4.76 35.33 0.09 0.68-0.39 1.31-1.07 1.41-0.06 0-0.11 0.01-0.17 0.01z"/>
    <path class="cls-9" d="m370.9 308.7c-0.24 0-0.48-0.07-0.69-0.21-0.58-0.38-0.73-1.16-0.35-1.73l10.22-15.41c0.38-0.58 1.16-0.73 1.73-0.35 0.58 0.38 0.73 1.16 0.35 1.73l-10.22 15.41c-0.24 0.36-0.64 0.56-1.04 0.56z"/>
    <path class="cls-9" d="m364.3 333.2c-0.62 0-1.16-0.47-1.24-1.1-2.38-19.62-22.99-26.97-23.19-27.05-0.65-0.23-1-0.94-0.77-1.59s0.94-1 1.59-0.77c0.22 0.08 22.29 7.95 24.86 29.11 0.08 0.69-0.41 1.31-1.09 1.39h-0.15z"/>
   </g>
   <path class="cls-16" d="m363 286.3c-7.14 3.22-12.84 2.38-10.26-1.53 2.58-3.9 11.5-7.93 16.06-7.25s1.33 5.55-5.81 8.78z" fill="#e2dcfe" fill-rule="evenodd"/>
   <path class="cls-6" d="m380.5 291.9c-5.16-3.36-7.47-6.94-4.15-6.45s9.77 4.7 11.62 7.56c1.84 2.87-2.31 2.25-7.47-1.11z" fill="#b8aeff" fill-rule="evenodd"/>
   <path class="cls-6" d="m341.6 304.8c-2.31 4.4-6.11 5.87-6.84 2.63s2.16-8.74 5.2-9.91 3.95 2.87 1.64 7.28z" fill="#b8aeff" fill-rule="evenodd"/>
   <path class="cls-10" d="m399.2 285.1c-7.96-0.93-12.63-4.27-8.41-6.02 4.23-1.75 14.18-0.59 17.92 2.08 3.74 2.68-1.55 4.86-9.51 3.94z" fill="#7361e5" fill-rule="evenodd"/>
   <path class="cls-16" d="m404.5 304.4c-5.22-1.67-7.75-5.13-4.55-6.23s9.73 0.98 11.75 3.75-1.98 4.15-7.21 2.49z" fill="#e2dcfe" fill-rule="evenodd"/>
   <path class="cls-6" d="m421.2 292c-6.62-0.72-10.5-3.68-6.98-5.33 3.52-1.64 11.8-0.74 14.9 1.63s-1.3 4.42-7.92 3.7z" fill="#b8aeff" fill-rule="evenodd"/>
   <path class="cls-16" d="m432.5 304.5c-6.05-4.63-8.3-9.61-4.05-8.96s11.8 6.44 13.6 10.42-3.5 3.17-9.55-1.46z" fill="#e2dcfe" fill-rule="evenodd"/>
   <path class="cls-6" d="m434 326.8c-5.04-3.57-7.01-7.55-3.55-7.15s9.76 4.86 11.34 8.04-2.75 2.68-7.79-0.89z" fill="#b8aeff" fill-rule="evenodd"/>
   <path class="cls-6" d="m395.3 326.7c-5.27-1.04-8.21-3.51-5.3-4.44s9.49 0.37 11.85 2.35c2.36 1.97-1.28 3.14-6.54 2.09z" fill="#b8aeff" fill-rule="evenodd"/>
   <path class="cls-10" d="m380.2 318.3c-6.26 0.42-10.32-1.47-7.3-3.41s10.85-2.47 14.09-0.95-0.53 3.94-6.8 4.36z" fill="#7361e5" fill-rule="evenodd"/>
   <path class="cls-10" d="m414 325.2c-5.23-3.24-6.9-7.96-3-8.51s10.43 3.5 11.77 7.28c1.33 3.78-3.53 4.46-8.76 1.22z" fill="#7361e5" fill-rule="evenodd"/>
   <g fill="#aaa0ff">
    <path class="cls-14" d="m102.7 310.7c-0.56 0-1.06-0.42-1.14-0.99-1.61-11.66 5.95-16.44 11.48-19.93 2.12-1.34 3.95-2.5 4.71-3.7 1.42-2.24 0.87-4.75 0.34-7.19-0.51-2.33-0.98-4.52 0.42-6.2 1.1-1.32 3.28-1.97 5.8-2.72 3.4-1.01 7.25-2.15 7.9-4.99 0.43-1.87-0.07-3.66-0.6-5.56-0.94-3.38-2.01-7.2 1.93-12.04 1.82-2.23 3.93-3.45 5.63-4.43 3.82-2.2 5.92-3.41 0.84-14.74-0.26-0.58 0-1.26 0.58-1.52s1.26 0 1.52 0.58c5.65 12.59 3 14.92-1.79 17.68-1.62 0.93-3.45 1.98-5 3.89-3.19 3.92-2.4 6.72-1.5 9.97 0.58 2.09 1.19 4.25 0.63 6.69-0.95 4.15-5.68 5.56-9.49 6.68-1.98 0.59-4.03 1.2-4.69 1.99-0.68 0.82-0.34 2.41 0.06 4.24 0.57 2.62 1.28 5.87-0.64 8.91-1.04 1.64-3.07 2.93-5.43 4.42-5.27 3.33-11.84 7.48-10.43 17.67 0.09 0.63-0.35 1.21-0.98 1.3-0.05 0-0.11 0.01-0.16 0.01z"/>
    <path class="cls-14" d="m144.3 249.2c-2.41 0-4.9-1.03-7.41-3.06-0.49-0.4-0.57-1.12-0.17-1.62 0.4-0.49 1.12-0.57 1.62-0.17 2.38 1.93 4.66 2.77 6.76 2.5 2.19-0.29 4.26-1.76 6.16-4.38 1.4-1.93 3.68-1.39 5.69-0.92 2.92 0.69 5.44 1.28 7.31-2.92 0.26-0.58 0.94-0.84 1.52-0.58s0.84 0.94 0.58 1.52c-2.65 5.93-7.04 4.9-9.94 4.22-1.95-0.46-2.85-0.59-3.3 0.03-2.29 3.15-4.88 4.94-7.72 5.32-0.37 0.05-0.73 0.07-1.1 0.07z"/>
    <path class="cls-14" d="m132 257.3c-0.2 0-0.41-0.05-0.59-0.17-6.37-3.84-10.64-7.12-10.75-10.61-0.05-1.66 0.86-3.14 2.7-4.41 2.12-1.46 1.41-3.36-0.58-7.07-1.4-2.61-2.85-5.31-1.71-7.77 2.33-5.01 9.22-5.67 9.51-5.7 0.63-0.05 1.19 0.41 1.25 1.04s-0.41 1.19-1.04 1.25c-0.06 0-5.87 0.58-7.63 4.38-0.65 1.41 0.52 3.59 1.65 5.71 1.74 3.24 3.9 7.26-0.14 10.05-1.74 1.2-1.71 2.14-1.71 2.45 0.09 2.96 7.03 7.14 9.64 8.71 0.54 0.33 0.72 1.03 0.39 1.58-0.22 0.36-0.6 0.56-0.99 0.56z"/>
    <path class="cls-14" d="m138.2 276.9c-2.82 0-7.01-1.11-10.6-6.52-0.35-0.53-0.21-1.24 0.32-1.59s1.24-0.21 1.59 0.32c2.64 3.99 6.12 5.91 9.8 5.42 3.58-0.48 6.28-3.08 7-5.27 1.04-3.16 4.84-3.5 8.52-3.81 4.12-0.36 8.38-0.73 9.63-4.53 0.2-0.6 0.85-0.93 1.45-0.73s0.93 0.85 0.73 1.45c-1.72 5.25-7.21 5.72-11.61 6.11-3.71 0.32-6 0.64-6.53 2.24-1.13 3.42-4.87 6.29-8.88 6.83-0.42 0.06-0.9 0.09-1.42 0.09z"/>
    <path class="cls-14" d="m154.5 279.8c-0.53 0-1.06-0.05-1.6-0.14-2.25-0.39-5.52-1.82-8.37-6.38-0.34-0.54-0.17-1.25 0.37-1.58 0.54-0.34 1.25-0.17 1.58 0.37 1.9 3.04 4.25 4.88 6.81 5.33 1.97 0.35 3.96-0.18 5.59-1.46 0.5-0.39 1.22-0.31 1.62 0.19 0.39 0.5 0.31 1.22-0.19 1.62-1.72 1.35-3.74 2.06-5.81 2.06z"/>
    <path class="cls-14" d="m119.4 274.6c-0.24 0-0.48-0.07-0.69-0.23-0.83-0.61-1.64-1.21-2.43-1.79-10.4-7.65-18.61-13.68-12.12-26.27 0.29-0.56 0.99-0.78 1.55-0.49s0.79 0.98 0.49 1.55c-5.59 10.84 0.82 15.55 11.44 23.36 0.8 0.59 1.61 1.19 2.44 1.8 0.51 0.38 0.62 1.1 0.24 1.61-0.23 0.3-0.57 0.46-0.92 0.46z"/>
    <path class="cls-14" d="m98.82 264.7c-1.27 0-2.49-0.22-3.68-0.67-6.14-2.33-8.71-9.88-8.81-10.2-0.2-0.6 0.13-1.25 0.73-1.45s1.25 0.12 1.45 0.73c0.02 0.07 2.34 6.85 7.46 8.78 2.62 1 5.6 0.55 8.86-1.33 0.55-0.32 1.25-0.13 1.57 0.42s0.13 1.25-0.42 1.57c-2.49 1.44-4.89 2.16-7.16 2.16z"/>
    <path class="cls-14" d="m139.5 297.7c-1.57 0-3.09-0.29-4.48-1.08-2.5-1.42-4.05-3.47-5.42-5.28-2.47-3.26-4.26-5.62-10.49-3.59-0.61 0.2-1.25-0.13-1.45-0.74-0.2-0.6 0.13-1.25 0.74-1.45 7.79-2.53 10.46 0.99 13.04 4.39 1.3 1.71 2.64 3.48 4.72 4.67 2.61 1.48 6.15 0.58 9.89-0.38 4.73-1.21 10.09-2.59 14.49 0.95 0.5 0.4 0.57 1.12 0.18 1.62-0.4 0.5-1.12 0.57-1.62 0.18-3.5-2.81-7.87-1.69-12.48-0.51-2.39 0.61-4.82 1.24-7.12 1.24z"/>
    <path class="cls-14" d="m123 237c-13.79 0-17.41-15.73-17.44-15.89-0.14-0.62 0.26-1.23 0.88-1.37 0.61-0.14 1.23 0.25 1.37 0.87 0 0.04 0.89 3.92 3.43 7.58 3.3 4.75 7.74 6.92 13.22 6.45 0.62-0.06 1.19 0.41 1.24 1.05 0.06 0.63-0.41 1.19-1.05 1.24-0.56 0.05-1.11 0.07-1.64 0.07z"/>
    <path class="cls-14" d="m149.6 268.7c-0.35 0-0.7-0.16-0.93-0.47-2.02-2.77-2.75-5.55-2.15-8.27 1.06-4.83 5.94-7.59 6.15-7.71 0.55-0.31 1.26-0.11 1.56 0.45 0.31 0.56 0.11 1.26-0.45 1.56-0.04 0.02-4.19 2.39-5.02 6.2-0.44 2.04 0.15 4.2 1.76 6.41 0.38 0.51 0.26 1.23-0.25 1.61-0.2 0.15-0.44 0.22-0.68 0.22z"/>
    <path class="cls-14" d="m103 253.2c-0.11 0-0.21-0.01-0.32-0.05-3.75-1.08-6.39-2.96-7.83-5.59-1.96-3.56-0.94-7.14-0.9-7.29 0.18-0.61 0.82-0.96 1.43-0.78s0.96 0.82 0.78 1.43c-0.08 0.3-1.98 7.39 7.16 10.02 0.61 0.18 0.96 0.81 0.79 1.42-0.15 0.5-0.6 0.83-1.1 0.83z"/>
    <path class="cls-14" d="m135.6 296.8c-0.54 0-1.02-0.38-1.13-0.93-0.79-4.12-0.16-7.26 1.88-9.31 3.4-3.43 9.34-2.39 9.59-2.34 0.62 0.11 1.04 0.71 0.92 1.34-0.11 0.62-0.71 1.04-1.33 0.93-0.05-0.01-5.02-0.86-7.55 1.71-1.47 1.49-1.89 3.93-1.25 7.26 0.12 0.62-0.29 1.23-0.91 1.35-0.07 0.01-0.15 0.02-0.22 0.02z"/>
    <path class="cls-14" d="m113.1 291.4c-0.61 0-1.12-0.48-1.15-1.1-0.19-4.2-1.49-7.1-3.87-8.63-4.57-2.94-11.76-0.11-11.84-0.08-0.59 0.24-1.26-0.05-1.5-0.64s0.05-1.26 0.64-1.5c0.34-0.14 8.37-3.3 13.94 0.27 3.04 1.95 4.69 5.47 4.92 10.46 0.03 0.63-0.46 1.17-1.1 1.2h-0.05z"/>
    <path class="cls-14" d="m158.3 304.7c-2.03 0-4.41-0.35-6.57-1.59-2.71-1.55-4.53-4.16-5.4-7.75-0.15-0.62 0.23-1.24 0.85-1.39s1.24 0.23 1.39 0.85c0.71 2.95 2.16 5.06 4.29 6.29 4.11 2.36 9.53 0.76 9.59 0.75 0.61-0.18 1.25 0.16 1.43 0.77s-0.16 1.25-0.76 1.43c-0.15 0.04-2.18 0.65-4.81 0.65z"/>
    <path class="cls-14" d="m109.6 267c-0.5 0-0.96-0.32-1.1-0.83-0.18-0.61 0.17-1.25 0.78-1.43 3.06-0.9 4.92-2.32 5.52-4.21 0.93-2.93-1.31-6.65-2.26-7.84-0.4-0.5-0.31-1.22 0.19-1.62s1.22-0.31 1.62 0.18c0.17 0.21 4.13 5.27 2.65 9.96-0.84 2.67-3.22 4.6-7.06 5.73-0.11 0.03-0.22 0.05-0.33 0.05z"/>
   </g>
   <path class="cls-25" d="m252.3 330c-24.15-17.9-22.91-35.4-13.97-32.08 8.94 3.31 14.2 16.97 13.97 32.08z" fill="#5d4dc3"/>
   <path class="cls-12" d="m252.3 330c17.46-10.86 20.14-25.64 14.11-24.58s-13.77 12.83-14.11 24.58z" fill="#8c7cf6"/>
   <path class="cls-13" d="m451.3 359c-12.99-6.56-24.92-11.32-27.46-12.43-57.31-24.87-115.2-24.58-201.4-17.71-63.05 5.02-78.51-2.92-121.9-32.47-40.16-27.37-65.48-44.49-93.83-42.66-3.83 0.25-6.82 3.44-6.82 7.29v116.6l451.3-18.58z" fill="#8c7cf6" fill-rule="evenodd"/>
   <path class="cls-12" d="m194.2 306.6c-18.66 3.12-13.98 31.63-41.83 34.88l58.8 0.36c-4.59-49.43-29.58-45.95-26.63 2.77" fill="#8c7cf6"/>
   <ellipse class="cls-20" transform="rotate(-89.47 189.5 329.9)" cx="189.5" cy="329.9" rx="10.77" ry="5.22" fill="#372b8e"/>
   <g fill="#7361e5">
    <path class="cls-9" d="m184.5 345.9c-0.66 0-1.21-0.51-1.25-1.17-1.6-26.56 4.8-38.99 11.87-39.53 8.36-0.65 15.13 13.71 17.26 36.57 0.06 0.69-0.44 1.3-1.13 1.36s-1.3-0.44-1.36-1.13c-2.15-23.09-8.94-34.7-14.58-34.31-2.83 0.22-5.48 3.57-7.28 9.19-2.18 6.82-2.97 16.4-2.29 27.7 0.04 0.69-0.48 1.28-1.17 1.32h-0.08z"/>
    <path class="cls-9" d="m152.3 342.8c-0.63 0-1.17-0.47-1.24-1.1-0.08-0.69 0.41-1.31 1.1-1.39 14.79-1.73 19.92-10.72 24.89-19.42 4.1-7.18 7.97-13.97 16.88-15.46 0.68-0.12 1.33 0.35 1.44 1.03s-0.35 1.33-1.03 1.44c-7.74 1.29-11.16 7.29-15.12 14.23-5.03 8.81-10.72 18.79-26.77 20.66h-0.15z"/>
   </g>
   <g fill="#7361e5">
    <path class="cls-9" d="m356.4 361-2.45 0.48c-0.01-0.06-0.65-3.17-2.82-7.8-1.94-4.13-5.1-9.47-10.13-14.92-4.02-4.36-9.59-9.15-17.21-13.49 1.77 0.06 3.51 0.15 5.25 0.25 5 3.23 9.7 7.09 13.91 11.67 5.58 6.09 8.93 11.98 10.89 16.37 1.93 4.32 2.51 7.2 2.56 7.44z"/>
    <path class="cls-9" d="m53.18 266.2c-1.88 12.43-7.05 21.81-15.44 27.97-7.68 5.64-18.22 8.54-30.85 8.54-2.24 0-4.53-0.09-6.89-0.28v-2.54c12.01 0.96 25.97-0.17 36.26-7.73 8.02-5.89 12.89-15.01 14.56-27.19 0.78 0.4 1.57 0.81 2.36 1.23z"/>
    <path class="cls-9" d="m258.5 362.7-2.47-0.41s0.23-1.64-0.21-4.23c-0.52-3.06-1.96-7.5-5.81-12.36-5.78-7.31-14.73-12.84-24.61-17 1.79-0.15 3.56-0.28 5.32-0.41 9.41 4.49 16.57 9.86 21.42 16.08 4.16 5.34 5.69 10.19 6.21 13.57 0.44 2.82 0.17 4.6 0.15 4.76z"/>
    <path class="cls-9" d="m60.97 270.5c-2.88 20.75-11.9 45.6-36.84 59.75-9.07 5.15-17.87 7.55-24.13 8.66v-2.57c6.07-1.12 14.47-3.46 22.99-8.32 19.88-11.32 32.12-31.6 35.64-58.88 0.78 0.44 1.56 0.89 2.34 1.36z"/>
   </g>
   <path class="cls-5" d="m270.6 352c-0.26 0-0.52-0.08-0.74-0.24-0.56-0.41-0.68-1.19-0.27-1.74 0.21-0.28 5.14-6.93 12.58-7.34 4.16-0.22 8.2 1.53 12.03 5.24 3.49-6.52 9.94-10.79 16.54-10.81h0.02c3.72 0 10.41 1.44 15.12 10.63 1.98-1.99 6.08-5.32 11.48-5.66 4.47-0.29 8.82 1.53 12.97 5.39 2.63-1.83 10.63-6.77 18.08-5.21 3.98 0.84 7.16 3.38 9.43 7.57 0.33 0.61 0.1 1.37-0.5 1.69-0.61 0.33-1.37 0.1-1.7-0.5-1.91-3.51-4.51-5.63-7.74-6.31-7.75-1.64-16.84 5.31-16.93 5.38-0.5 0.39-1.21 0.34-1.65-0.1-3.83-3.83-7.8-5.65-11.79-5.4-6.45 0.4-10.96 6.1-11 6.16-0.27 0.35-0.71 0.53-1.14 0.47-0.44-0.05-0.81-0.33-0.99-0.74-3.07-7-7.92-10.86-13.64-10.86h-0.02c-6.06 0.01-12.25 4.52-15.05 10.96-0.17 0.39-0.52 0.66-0.94 0.73s-0.84-0.08-1.13-0.39c-3.67-4.01-7.47-5.94-11.3-5.74-6.24 0.33-10.67 6.26-10.71 6.32-0.25 0.33-0.62 0.51-1.01 0.51z" fill="#b8aeff"/>
   <path class="cls-26" d="m86.55 342.9c-18.35-1.43-29.53-5.91-20.14-8.05 9.4-2.15 32.33-0.36 41.28 3.22s-2.8 6.27-21.14 4.83z" fill="#5d4dc3" fill-rule="evenodd"/>
   <path class="cls-16" d="m96.13 339.8c-1.1-0.05-2.23-0.13-3.4-0.25-1.85-0.18-3.78-0.43-5.77-0.77-0.15-0.02-0.31-0.06-0.47-0.08-0.66-0.12-1.32-0.24-1.97-0.37-18.26-3.63-28.2-11.87-17.9-15.3 3.51-1.17 8.52-1.49 13.96-1.15 1.11 0.07 2.23 0.17 3.37 0.29 2.75 0.31 5.56 0.76 8.3 1.34 1.17 0.25 2.32 0.52 3.46 0.82 6.08 1.58 11.51 3.79 14.79 6.38 7.28 5.73-0.49 9.76-14.36 9.08z" fill="#e2dcfe" fill-rule="evenodd"/>
   <path class="cls-5" d="m86.96 338.8c-0.15-0.02-0.31-0.06-0.47-0.08-0.66-0.12-1.32-0.24-1.97-0.37 0.31-0.44 0.62-1.08 0.78-1.53 2.14-5.87 0.05-11.49-4.72-14.91 1.11 0.07 2.23 0.17 3.37 0.29 1.77 1.59 3.18 3.58 3.89 5.9 1.1 3.5 0.95 7.49-0.88 10.71z" fill="#b8aeff"/>
   <path class="cls-5" d="m96.13 339.8c-1.1-0.05-2.23-0.13-3.4-0.25 0.98-0.47 1.84-1.39 2.46-2.4 2.89-4.7 0.75-10.06-2.95-13.63 1.17 0.25 2.32 0.52 3.46 0.82 1.91 2.14 3.2 4.8 3.31 7.76 0.12 2.72-0.87 5.78-2.89 7.7z" fill="#b8aeff"/>
   <ellipse class="cls-24" transform="rotate(-12.37 72.39 302.5)" cx="72.36" cy="302.4" rx="5.06" ry="3.68" fill="#5d4dc4"/>
   <ellipse class="cls-24" cx="84.74" cy="308.6" rx="2.7" ry="2.62" fill="#5d4dc4"/>
   <ellipse class="cls-24" cx="267.4" cy="336.3" rx="3.25" ry="2.62" fill="#5d4dc4"/>
   <path class="cls-7" d="m158.4 178.5h19.74c-10.82-17.14-22.9-7.13-19.74 0z" fill="#8d7cf7"/>
   <path class="cls-7" d="m150.4 190.6c0-5.4-5.67-11.88-9.18-9.01-3.52 2.86-3.86 14.2-0.91 17.72s10.09-3.31 10.09-8.71z" fill="#8d7cf7"/>
   <path class="cls-5" d="m169.7 205.2c-1.34 0.21-2.67 0.29-3.95 0.25-0.85-0.03-1.68-0.11-2.49-0.24-6.86-1.08-12.3-5.62-13.27-11.78-1.24-8.01 5.56-15.72 15.2-17.22 0.29-0.04 0.58-0.08 0.87-0.11 0.85-0.1 1.7-0.15 2.53-0.14 8.24 0.05 15.22 4.99 16.32 12.03 1.24 8.01-5.56 15.71-15.21 17.21z" fill="#b8aeff"/>
   <ellipse transform="rotate(-67.52 175 190.6)" cx="175" cy="190.6" rx="3.3" ry="2.74"/>
   <path class="cls-7" d="m158 193.5c-2.66-0.83-3.52-3.92-1.55-5.57s5.41 0 6.1 2.48-1.89 3.92-4.55 3.1z" fill="#8d7cf7"/>
   <path class="cls-7" d="m168.7 175-0.09 0.96-2.84 29.49c-0.85-0.03-1.68-0.11-2.49-0.24l2.8-29.11 0.13-1.34z" fill="#8d7cf7"/>
   <ellipse class="cls-15" transform="rotate(-23.96 190.5 177.9)" cx="190.4" cy="177.9" rx="3.3" ry="3.03" fill="#e2dcfe"/>
  </g>
 </g>
</svg>
