<svg width="60mm" height="28.01mm" version="1.1" viewBox="0 0 60 28.01" xmlns="http://www.w3.org/2000/svg">
 <g transform="translate(-106.1 -54.19)">
  <g transform="matrix(.2646 0 0 .2646 43.25 20.29)" data-name="Layer 3">
   <g fill="#735fe6">
    <path class="cls-8" d="m256.8 162.9c0 4.22-2.9 20.14-2.9 40.41 0 5.55 0.36 12.91 4.1 12.91 1.57 0 3.26-1.45 6.15-1.45 3.98 0 6.03 3.74 6.03 7.48 0 8.32-8.81 11.1-15.92 11.1-14.11 0-16.89-11.82-16.89-23.64 0-22.68 0.48-36.06 0.48-50.18 0-6.27 3.38-9.89 9.65-9.89 8.44 0 9.29 5.91 9.29 13.27z"/>
    <path class="cls-8" d="m278 188.9c0-6.63 3.38-8.2 9.05-8.2 5.31 0 9.29 1.69 9.29 7.36 0 8.08-0.36 13.87-0.36 19.66 0 5.19 1.81 8.68 1.81 13.27 0 6.75-2.65 12.42-10.25 12.42s-10.01-2.89-10.01-10.49 0.84-15.32 0.84-22.92c0-3.5-0.36-7.6-0.36-11.1z"/>
    <path class="cls-8" d="m318.2 171c6.15 0 9.41 3.26 9.41 9.41 3.02-5.67 9.53-8.44 15.8-8.44 14.35 0 21.23 7.72 21.23 22.68 0 4.1-0.36 7.72-0.36 11.7 0 10.01 1.33 11.46 1.33 17.25 0 6.15-3.5 9.89-9.77 9.89-5.79 0-9.29-3.38-9.29-9.29 0-6.51 0.72-12.54 0.72-19.06s-0.72-15.56-9.29-15.56c-6.63 0-10.86 4.22-10.86 11.1 0 11.34 0.84 16.04 0.84 23.28 0 5.91-3.62 9.77-9.77 9.77-5.07 0-9.53-3.98-9.53-9.05 0-5.55 1.21-10.01 1.21-21.47s-1.45-17.37-1.45-21.83c0-6.51 2.89-10.37 9.77-10.37z"/>
    <path class="cls-8" d="m385.2 149.4c7.24 0 10.86 5.31 10.86 12.54 0 4.34-0.96 8.56-1.33 12.91-0.48 4.58-0.48 9.41-0.48 13.99 0 0.96 0 2.65 0.72 2.65 0.84 0 2.17-1.81 3.5-3.02 6.63-7.36 13.15-17.61 20.87-17.61 5.07 0 9.17 3.14 9.17 8.56 0 0.24-0.12 0.72-0.12 0.96-0.72 5.55-5.55 8.44-9.65 11.46-3.38 2.53-8.56 5.91-12.06 8.32 3.38 4.22 12.3 10.74 16.77 13.75 3.86 2.65 7.48 4.22 7.48 9.77 0 6.03-4.34 9.29-10.13 9.29-6.75 0-11.94-6.88-15.92-11.94-3.38-4.34-6.27-8.32-11.34-13.87 0 6.88 0.6 10.49 0.6 14.35 0 5.79-1.93 12.18-8.69 12.18-7.36 0-10.74-5.55-10.74-12.42 0-4.95 2.17-12.18 2.17-30.64 0-14.47-1.33-20.75-1.33-29.91 0-7 3.38-11.34 9.65-11.34z"/>
    <path class="cls-8" d="m464.2 222.3c0 7.24-5.19 11.7-11.46 11.7-5.79 0-11.34-4.58-11.34-10.61 0-7.48 4.22-11.58 11.82-11.58 6.51 0 10.98 5.43 10.98 10.49zm-11.1-72.01c6.03 0 10.73 2.53 10.73 9.17 0 10.01-1.45 18.94-1.45 28.59 0 4.1-0.24 9.17-1.81 13.03-1.45 3.5-4.22 4.7-7.84 4.7-11.46 0-8.93-15.08-9.89-22.19-0.48-3.01-0.6-13.51-0.6-20.02 0-8.08 0.24-13.27 10.86-13.27z"/>
   </g>
   <path class="cls-21" d="m294.8 135.6s-3.78-8.1-6.2-7.41 2.16 9.93 2.16 9.93z" fill="#6354cc"/>
   <path class="cls-7" d="m270.5 163.4c9.13 17.28 39.93 9.68 31.57-11.27-1.33-3.35-3.5-6.56-3.5-6.56 10.41 6.17 13.5 1.56 4.75-5.86-8.75-7.41-13.94-7.44-13.35-3.22 0.55 3.97 6.24 24.48-6.09 25.14-0.47 0.02-0.64-0.6-0.22-0.81 5.15-2.51 6.47-10.56-0.7-13.95-8.14-3.85-17.38 7.21-12.46 16.53z" fill="#8d7cf7"/>
   <path class="cls-5" d="m280.1 171.8c1.03-1.43 6.01-3.5 12.49-2.48 1.04 0.17 2-0.59 2.02-1.65 0.07-3.42 0.95-10.36 6.49-15.49 0.35-0.33 0.94-0.19 1.11 0.26 6.08 15.73-10 23.84-22.11 19.36z" fill="#b8aeff"/>
   <path class="cls-21" d="m281.3 162c0.52-0.08 0.93-0.51 0.97-1.06 0.05-0.64-0.43-1.19-1.07-1.24-2.02-0.15-3.35-0.9-3.65-2.06-0.23-0.88 0.17-1.89 0.95-2.4 0.91-0.6 2.08-0.4 3.31 0.56 0.5 0.39 1.23 0.3 1.63-0.2 0.39-0.51 0.3-1.23-0.2-1.63-2.01-1.57-4.26-1.82-6.01-0.67-1.61 1.06-2.4 3.08-1.92 4.92 0.27 1.03 1.36 3.47 5.73 3.79 0.09 0 0.18 0 0.27-0.01z" fill="#6354cc"/>
   <path class="cls-19" d="m293.8 140c0.28 1.72 2.32 2.49 3.68 1.39s1.01-3.25-0.62-3.87-3.34 0.76-3.06 2.48z" fill="#0e0e0e"/>
   <path class="cls-21" d="m291.7 151.9c2.86 2.49 6.33 2.8 9.01 2.37 0.72-0.12 1.38-0.28 1.95-0.48-0.17-0.54-0.36-1.09-0.59-1.66-0.07-0.18-0.14-0.35-0.22-0.52-1.8 0.56-6.81 1.6-10.13-3.13 0.04 1.15 0.05 2.3-0.03 3.42z" fill="#6354cc"/>
   <path class="cls-21" d="m288.8 159.7c1.06 3.13 3.29 5.6 6.54 7.21 1.61 0.79 3.14 1.21 4.19 1.43 0.65-0.63 1.24-1.31 1.75-2.05-0.05-0.02-0.11-0.03-0.17-0.04-0.37-0.03-9.03-0.93-10.48-8.73-0.02-0.11-0.06-0.2-0.1-0.3-0.43 0.95-0.99 1.8-1.72 2.47z" fill="#6354cc"/>
   <path class="cls-21" d="m283.8 172.7c0.81 0.13 1.63 0.21 2.45 0.24-0.23-0.86-1.94-7.53 0.54-11.93-0.81 0.34-1.75 0.56-2.82 0.62-1.47 4.18-0.64 9.03-0.16 11.08z" fill="#6354cc"/>
   <path class="cls-21" d="m269.7 161.6c0.2 0.61 0.46 1.22 0.78 1.82 0.16 0.3 0.32 0.57 0.49 0.85 0.42-1.13 1.77-3.94 5.01-4.55 0.22-0.04 0.46-0.07 0.7-0.09 0.64-0.06 1.11-0.62 1.06-1.25 0-0.11-0.03-0.21-0.07-0.3-0.03-0.07-0.05-0.13-0.09-0.19-0.22-0.37-0.64-0.6-1.09-0.57-0.47 0.04-0.91 0.12-1.33 0.21-2.8 0.65-4.48 2.49-5.45 4.07z" fill="#6354cc"/>
   <path class="cls-21" d="m277.5 153.2v0.42c-0.05 0.63 0.43 1.19 1.07 1.24 0.1 0 0.19 0 0.27-0.01 0.52-0.08 0.93-0.51 0.97-1.05 0.02-0.33 0.03-0.72-0.01-1.14-0.12-1.84-0.89-4.38-3.05-6.02-0.85 0.29-1.66 0.71-2.42 1.25 2.81 1.21 3.14 4.2 3.17 5.31z" fill="#6354cc"/>
   <path class="cls-21" d="m302.1 147.4c6.88 2.93 8.64-0.51 2.93-6.13-0.13 2.38-1.84 4.81-2.93 6.13z" fill="#6354cc"/>
  </g>
 </g>
</svg>
