<?xml version="1.0" encoding="UTF-8" standalone="no"?>
<!-- Created with Inkscape (http://www.inkscape.org/) -->

<svg
   width="89.074631mm"
   height="53.785801mm"
   viewBox="0 0 89.074631 53.785801"
   version="1.1"
   id="svg1"
   xmlns="http://www.w3.org/2000/svg"
   xmlns:svg="http://www.w3.org/2000/svg">
  <defs
     id="defs1" />
  <g
     id="layer1"
     transform="translate(-63.821012,-187.01332)">
    <g
       id="Layer_12"
       data-name="Layer 12"
       transform="matrix(0.26458333,0,0,0.26458333,-33.550947,140.94536)">
      <g
         id="g38">
        <g
           id="g32">
          <path
             class="cls-17"
             d="m 641.13,260.55 c -53.85,-14.04 -53.14,20.91 -47.61,28.68 -23.17,-3.17 -27.17,13.66 -27.17,13.66 -25.48,-10.36 -38,-2.91 -47.7,17.47 -20.84,-14.82 -34.25,-3.7 -33.91,12.66 -25.78,-16.92 -45.88,-5.91 -43.71,11.72 -19.7,-14.45 -38.93,-12.41 -49.64,0.02 -22.31,-13.81 -23.37,5.05 -23.37,5.05 h 220.1 l 53.02,-89.26 z"
             id="path1"
             style="fill:#e1dbfd" />
          <path
             class="cls-9"
             d="m 533.91,305.12 c 3.78,-15.93 25.18,-16.62 0.78,5.32 -21.56,-4.67 -29.12,-29.47 -21.06,-30.18 8.06,-0.71 16.92,13.74 20.28,24.86 z"
             id="path2"
             style="fill:#7361e5" />
          <g
             id="g15">
            <path
               class="cls-2"
               d="m 674.38,240.12 -8.8,3.46 c -0.79,-8.24 0.41,-15.13 2.48,-20.52 2.1,-5.45 5.11,-9.37 7.89,-11.62 4.22,-3.41 6,2.37 2.85,15 -0.97,3.92 -2.42,8.51 -4.42,13.68 z"
               id="path3"
               style="fill:#8a7ef6" />
            <path
               class="cls-2"
               d="m 653.29,252.26 c -6.88,-16.68 -3.25,-34.41 2.37,-46.53 0.44,-0.95 0.89,-1.87 1.35,-2.75 6.65,-12.66 14.78,-13.39 16,-7.62 0.94,4.42 -2.97,10.21 -7.05,17.6 -4.9,8.86 -10.06,20.02 -7.46,33.92 l -5.21,5.37 z"
               id="path4"
               style="fill:#8a7ef6" />
            <path
               class="cls-2"
               d="m 646.81,253.79 -3.91,2.02 c -3.25,-7.02 -5.5,-13.95 -6.97,-20.64 -2.37,-10.79 -2.73,-20.96 -2.03,-29.86 0.07,-0.93 0.16,-1.82 0.27,-2.69 v 0 c 2.09,-16.9 10.34,-21.67 13.13,-14.15 1.42,3.82 0.55,10.46 -0.62,18.71 -1.19,8.38 -2.68,18.43 -2.4,28.87 0.16,5.87 0.87,11.86 2.52,17.75 z"
               id="path5"
               style="fill:#8a7ef6" />
            <path
               class="cls-2"
               d="m 637.83,258.22 -6.34,3.28 c -5.75,-8.17 -10.08,-16.95 -13.2,-25.8 -5.13,-14.47 -7.04,-29.12 -6.76,-41.53 0.09,-3.93 0.4,-7.63 0.9,-11.03 2.61,-17.67 14.58,-6.09 14.75,6.84 0.02,1.69 -0.13,3.82 -0.33,6.33 -0.67,8.4 -1.88,21.04 0.96,35.44 1.65,8.4 4.68,17.39 10.01,26.48 z"
               id="path6"
               style="fill:#8a7ef6" />
            <path
               class="cls-2"
               d="m 627.28,263.26 -4.05,2.09 c -8.79,-8.9 -16.35,-16.83 -22.01,-23.48 -8.07,-9.5 -12.25,-16.39 -10.62,-19.79 1.78,-3.69 9.59,-0.12 19.26,12.07 5.46,6.88 11.52,16.5 17.41,29.11 z"
               id="path7"
               style="fill:#8a7ef6" />
            <path
               class="cls-2"
               d="m 618.44,269.02 -4.86,2.51 c -5.78,-1.31 -11.29,-4.22 -15.61,-7.5 -6.7,-5.1 -10.54,-11.09 -8.11,-13.43 2.54,-2.45 7.93,-2.03 15,3.5 v 0 c 4.04,3.17 8.64,8 13.57,14.93 z"
               id="path8"
               style="fill:#8a7ef6" />
            <path
               class="cls-23"
               d="m 601.24,241.87 v 0 c -8.07,-9.5 -12.25,-16.4 -10.62,-19.79 1.78,-3.69 9.59,-0.12 19.26,12.07 -7.18,0.08 -8.64,7.72 -8.64,7.72 z"
               id="path9"
               style="fill:#5847c6" />
            <path
               class="cls-23"
               d="m 618.44,269.02 -4.86,2.51 c -5.78,-1.31 -11.29,-4.22 -15.61,-7.5 v 0 c 0,0 1.74,-6.97 6.89,-9.93 v 0 c 4.04,3.17 8.64,8 13.57,14.93 z"
               id="path10"
               style="fill:#5847c6" />
            <path
               class="cls-23"
               d="m 611.53,194.16 c 0.09,-3.93 0.4,-7.63 0.9,-11.03 2.61,-17.67 14.58,-6.09 14.75,6.84 0.02,1.69 -0.13,3.82 -0.33,6.33 -6.71,5.98 -15.33,-2.14 -15.33,-2.14 z"
               id="path11"
               style="fill:#5847c6" />
            <path
               class="cls-23"
               d="m 637.83,258.22 -6.34,3.28 c -5.75,-8.17 -10.08,-16.95 -13.2,-25.8 0.27,0.09 6.47,2.11 9.53,-3.96 v 0 c 1.65,8.4 4.68,17.4 10.01,26.49 z"
               id="path12"
               style="fill:#5847c6" />
            <path
               class="cls-23"
               d="m 635.93,235.16 c -2.37,-10.79 -2.73,-20.96 -2.03,-29.86 0.07,-0.93 0.16,-1.82 0.27,-2.69 0.15,0.23 5.66,8.5 12.51,4.55 -1.19,8.38 -2.68,18.43 -2.4,28.87 v 0 c -3.22,4.6 -8.35,-0.87 -8.35,-0.87 z"
               id="path13"
               style="fill:#5847c6" />
            <path
               class="cls-23"
               d="m 665.96,212.97 -10.3,-7.24 c 0.44,-0.95 0.89,-1.87 1.35,-2.75 6.65,-12.66 14.78,-13.39 16,-7.62 0.94,4.42 -2.97,10.21 -7.05,17.6 z"
               id="path14"
               style="fill:#5847c6" />
            <path
               class="cls-23"
               d="m 674.38,240.12 -8.8,3.46 c -0.79,-8.24 0.41,-15.13 2.48,-20.52 0,0 5.97,6.81 10.74,3.38 -0.97,3.92 -2.42,8.51 -4.42,13.68 z"
               id="path15"
               style="fill:#5847c6" />
          </g>
          <path
             class="cls-13"
             d="m 704.67,246.85 c 0,-4.52 -3.57,-8.27 -8.09,-8.43 -86.59,-3.09 -102.69,59.87 -114.99,64.83 -12.67,5.11 -63.62,-6.7 -84.08,36.46 -34.6,-11.9 -57.29,12.79 -57.29,12.79 l 264.46,2.29 V 246.85 Z"
             id="path16"
             style="fill:#8c7cf6;fill-rule:evenodd" />
          <g
             id="g18">
            <path
               class="cls-9"
               d="m 648.85,244.69 c -5.73,3.91 -10.28,8.77 -13.62,14.56 -11.71,20.3 -4.43,45.45 -4.36,45.7 l 0.45,1.51 -1.58,0.09 c -11.32,0.65 -19.66,4.12 -24.78,10.34 -6.87,8.34 -5.51,18.91 -5.5,19.02 l -2.48,0.34 c -0.06,-0.47 -1.53,-11.72 6.03,-20.92 5.34,-6.51 13.77,-10.26 25.06,-11.17 -1.45,-5.88 -5.72,-27.57 4.98,-46.15 2.22,-3.85 4.94,-7.31 8.16,-10.37 2.44,-1.06 4.98,-2.04 7.64,-2.95 z"
               id="path17"
               style="fill:#7361e5" />
            <path
               class="cls-9"
               d="m 556.28,305.55 c -29.32,6.57 -43.08,34.28 -47.14,44.24 -0.88,2.18 -1.31,3.5 -1.33,3.58 l -2.39,-0.74 c 0.02,-0.07 0.35,-1.11 1.03,-2.84 3.25,-8.24 14.42,-32.23 38,-42.91 4.06,-0.66 8.04,-1.06 11.83,-1.33 z"
               id="path18"
               style="fill:#7361e5" />
          </g>
          <g
             id="g21">
            <g
               id="g20">
              <path
                 class="cls-26"
                 d="m 704.67,326.85 c -33.22,-7.6 -62.65,-5.52 -86.04,-0.25 -35.37,7.96 -63.34,28.74 -63.34,28.74 l 6.4,-0.83 142.97,22.89 v -50.55 z"
                 id="path19"
                 style="fill:#5d4dc3;fill-rule:evenodd" />
              <path
                 class="cls-22"
                 d="m 675.27,322.4 c -26.76,9.21 -31.05,31.81 -31.25,32.94 l -2.46,-0.42 c 0.05,-0.28 4.11,-22.02 27.97,-32.86 1.89,0.08 3.81,0.2 5.74,0.34 z"
                 id="path20"
                 style="fill:#4a3ca5" />
            </g>
            <ellipse
               class="cls-7"
               cx="639.75"
               cy="331.92999"
               rx="4.5700002"
               ry="2.95"
               id="ellipse20"
               style="fill:#8d7cf7" />
          </g>
          <g
             id="g26">
            <path
               class="cls-18"
               d="m 566.94,350.23 h -40.87 c -8.76,-23.87 21.54,-47.16 40.87,0 z"
               id="path21"
               style="fill:#e1dbfd;fill-rule:evenodd" />
            <path
               class="cls-17"
               d="m 619.77,349.9 h -57.34 c 0.8,-9.43 7.53,-19.05 18.22,-24.45 15,-7.58 32.07,-3.99 38.15,8.02 2.57,5.09 2.76,10.87 0.97,16.42 z"
               id="path22"
               style="fill:#e1dbfd" />
            <path
               class="cls-25"
               d="m 603.32,339.78 c -1.34,1.08 -3,2.05 -4.88,2.79 -5.87,2.31 -11.69,1.49 -13,-1.83 -0.06,-0.15 -0.11,-0.3 -0.15,-0.46 -0.81,-3.27 2.82,-7.52 8.43,-9.72 5.87,-2.31 11.69,-1.49 12.99,1.83 0.88,2.25 -0.54,5.08 -3.39,7.39 z"
               id="path23"
               style="fill:#5d4dc3" />
            <path
               class="cls-27"
               d="m 603.32,339.78 c -1.34,1.08 -3,2.05 -4.88,2.79 -5.87,2.31 -11.69,1.49 -13,-1.83 -0.06,-0.15 -0.11,-0.3 -0.15,-0.46 0.64,-2.78 3.99,-5.17 8.26,-5.67 4.99,-0.58 9.36,1.66 9.75,5.02 0,0.05 0,0.1 0,0.15 z"
               id="path24"
               style="fill:#281f70" />
            <path
               class="cls-26"
               d="m 552.77,350.23 h -12.36 c 0,-1.12 0.19,-2.31 0.65,-3.52 0.51,-1.37 1.25,-2.52 2.12,-3.4 2.75,-2.85 6.79,-3.11 8.88,0.15 1.24,1.93 1.38,4.46 0.71,6.77 z"
               id="path25"
               style="fill:#5d4dc3;fill-rule:evenodd" />
            <path
               class="cls-28"
               d="m 547.2,350.23 h -6.79 c 0,-1.12 0.19,-2.31 0.65,-3.52 0.51,-1.37 1.25,-2.52 2.12,-3.4 0.5,0.13 1.01,0.38 1.5,0.75 1.81,1.36 2.65,3.81 2.52,6.18 z"
               id="path26"
               style="fill:#281f70;fill-rule:evenodd" />
          </g>
          <g
             id="g31">
            <path
               class="cls-25"
               d="m 688.07,269.58 -45.86,11.46 c -5.18,1.12 -5.56,8.78 8.58,9.03 -6.51,14.82 1.47,14.11 15.11,0.62 11.33,7.19 25.72,4.65 12.89,-8.42 9.08,-4.92 14.5,-8.36 9.27,-12.69 z"
               id="path27"
               style="fill:#5d4dc3" />
            <g
               id="g30">
              <path
                 class="cls-18"
                 d="m 682.96,275.29 c -0.5,0.34 -1.04,0.7 -1.63,1.06 -1.25,0.79 -2.69,1.64 -4.36,2.57 10.86,12.83 6.37,14.28 -12.41,6.3 -1.56,1.84 -3.05,3.54 -4.45,5.08 -0.56,0.61 -1.11,1.2 -1.63,1.76 -8.52,8.96 -12.92,10.25 -7.2,-6.17 -16.73,-0.98 -15.63,-6.12 3.49,-11.31 6.47,-17.7 8.15,-16 16.23,-4.51 9.16,-3 25.23,-3.8 11.97,5.23 z"
                 id="path28"
                 style="fill:#e1dbfd;fill-rule:evenodd" />
              <path
                 class="cls-3"
                 d="m 682.96,275.29 c -0.5,0.34 -1.04,0.7 -1.63,1.06 -8.37,-2.63 -16.84,-0.81 -20.15,8.47 -0.61,1.75 -0.96,3.6 -1.08,5.47 -0.56,0.61 -1.11,1.2 -1.63,1.76 -0.15,-2.62 0.13,-5.28 0.94,-7.82 2.8,-8.91 11.32,-12.66 20.07,-10.17 1.19,0.34 2.36,0.75 3.48,1.23 z"
                 id="path29"
                 style="fill:#b7adff" />
              <path
                 class="cls-4"
                 d="m 661.81,270.37 c -0.96,2.04 -2.68,2.78 -3.1,1.34 -0.42,-1.44 0.79,-3.99 2.16,-4.59 1.37,-0.6 1.89,1.2 0.93,3.24 z"
                 id="path30"
                 style="fill:#b7adff;fill-rule:evenodd" />
            </g>
          </g>
          <ellipse
             class="cls-24"
             cx="562.42999"
             cy="316.94"
             rx="4.5599999"
             ry="2.9400001"
             transform="rotate(-16.76,562.40577,316.92791)"
             id="ellipse31"
             style="fill:#5d4dc4" />
          <ellipse
             class="cls-24"
             cx="609.70001"
             cy="295.48001"
             rx="4.5700002"
             ry="2.95"
             id="ellipse32"
             style="fill:#5d4dc4" />
        </g>
        <g
           id="g37">
          <g
             id="g36">
            <path
               class="cls-7"
               d="M 545.75,215.69 519,211.62 c 9.53,-19.13 30.29,-10.65 26.75,4.07 z"
               id="path32"
               style="fill:#8d7cf7" />
            <path
               class="cls-7"
               d="m 545.74,238.85 c 1.55,9.6 -6.89,9.76 -10.08,5.45 z"
               id="path33"
               style="fill:#8d7cf7" />
            <path
               class="cls-7"
               d="m 550.16,227.1 c 0,3.06 8.27,13.26 12.64,10.25 4.37,-3.01 4.1,-19.28 0,-21.35 -4.1,-2.07 -12.64,8.03 -12.64,11.09 z"
               id="path34"
               style="fill:#8d7cf7" />
            <path
               class="cls-5"
               d="m 549.3,232.95 c -2.46,7.07 -9.29,11.49 -16.86,11.7 -0.85,0.03 -1.71,0 -2.57,-0.09 -1.63,-0.16 -3.29,-0.51 -4.92,-1.08 -10.19,-3.55 -15.81,-14.02 -12.55,-23.38 2.35,-6.77 8.71,-11.11 15.9,-11.65 0.91,-0.07 1.82,-0.08 2.75,-0.02 1.89,0.11 3.81,0.48 5.7,1.14 10.19,3.55 15.81,14.02 12.55,23.38 z"
               id="path35"
               style="fill:#b8aeff" />
            <ellipse
               cx="520.72998"
               cy="225.33"
               rx="3.45"
               ry="3.75"
               transform="rotate(-18.69,520.67482,225.30091)"
               id="ellipse35" />
            <ellipse
               class="cls-7"
               cx="540.83002"
               cy="225.84"
               rx="5.1999998"
               ry="4.7800002"
               transform="rotate(-16.8,540.67516,225.81006)"
               id="ellipse36"
               style="fill:#8d7cf7" />
            <path
               class="cls-7"
               d="m 534.42,232.17 c -0.42,5.67 -1.42,10.25 -1.98,12.48 -0.85,0.03 -1.71,0 -2.57,-0.09 1.06,-4.07 5.2,-22.34 -1.57,-36.11 -0.26,-0.54 -0.55,-1.08 -0.85,-1.61 l 2.17,-1.24 c 0.53,0.92 1,1.87 1.43,2.83 3.59,8.05 3.86,17.19 3.37,23.74 z"
               id="path36"
               style="fill:#8d7cf7" />
          </g>
          <ellipse
             class="cls-15"
             cx="509.14999"
             cy="209.96001"
             rx="3.28"
             ry="3.02"
             transform="rotate(-45,509.14965,209.96331)"
             id="ellipse37"
             style="fill:#e2dcfe" />
        </g>
      </g>
    </g>
  </g>
</svg>
