<!DOCTYPE svg PUBLIC "-//W3C//DTD SVG 1.1//EN" "http://www.w3.org/Graphics/SVG/1.1/DTD/svg11.dtd">
<svg clip-rule="evenodd" fill-rule="evenodd" stroke-linejoin="round" stroke-miterlimit="1.414" version="1.1" viewBox="0 0 2011 928" xmlns="http://www.w3.org/2000/svg"><script xmlns=""/>
 <g fill="#0e0e0e">
  <path d="m1812 748.4c-50.6 18.31-78.76 71.86-62.85 119.5 15.91 47.65 69.9 71.47 120.5 53.16 50.6-18.31 78.76-71.86 62.85-119.5-15.91-47.65-69.9-71.47-120.5-53.16zm-1651-484.2c13.21 1e-3 19.81 6.605 19.81 19.81v620.8c0 13.21-6.604 19.81-19.81 19.81h-130.8c-13.21 0-19.81-6.605-19.81-19.81v-620.8c0-13.21 6.605-19.81 19.81-19.81h130.8zm537.6-5.283c144 0 194.2 97.75 194.2 232.5v413.4c0 13.21-6.604 19.81-19.81 19.81h-130.8c-13.21 0-19.81-6.605-19.81-19.81v-433.3c0-44.91-33.02-60.76-71.33-60.76h-15.85c-56.8 0-97.75 23.78-112.3 47.55v446.5c0 13.21-6.604 19.81-19.81 19.81h-130.8c-13.21 0-19.81-6.605-19.81-19.81v-620.8c0-13.21 6.604-19.81 19.81-19.81h130.8c13.21 1e-3 19.81 6.605 19.81 19.81v58.12c19.81-33.02 70.01-83.22 167.8-83.22h7.926zm503.3-258.9c13.21 0 19.81 6.605 19.81 19.81v458.4l187.6-198.1c7.925-9.246 19.81-15.85 30.38-15.85h136.1c17.17 1e-3 33.02 19.81 9.246 44.91l-196.8 211.3 229.8 368.5c7.925 14.53 6.604 35.66-15.85 35.66h-124.2c-17.17 0-33.02-5.284-43.59-23.78l-161.1-266.8-51.52 51.52v219.3c0 13.21-6.604 19.81-19.81 19.81h-130.8c-13.21 0-19.81-6.605-19.81-19.81v-885c0-13.21 6.604-19.81 19.81-19.81h130.8zm-1132 31.38c-49.58 14.99-79.42 65.02-66.59 111.7 12.83 46.63 63.51 72.32 113.1 57.33 49.58-14.99 79.42-65.02 66.59-111.7-12.83-46.63-63.51-72.32-113.1-57.33z"/>
  <path d="m1796 594.6-28.78-0.213c-13.21 0-19.81-6.605-19.81-19.81v-554.8c0-13.21 6.604-19.81 19.81-19.81h134.7c13.21 0 19.81 6.605 19.81 19.81l-0.081 18.72c-51.24 12.48-91.14 64.7-94.33 129.8-2.564 52.29 19.2 99.66 53.61 126.5-25.63 17.44-44.47 46.89-49.19 82.16-5.141 38.4 7.648 74.78 31.36 98.84-23.94 10.51-45.74 31.98-58.15 60.3-8.77 20.02-11.51 40.41-8.983 58.53z"/>
  <path d="m1837 549.8c-9.822 22.42-2.309 46.09 16.77 52.83 19.07 6.738 42.53-5.992 52.36-28.41 9.821-22.42 2.308-46.09-16.77-52.83-19.08-6.739-42.54 5.992-52.36 28.41zm35.57-164.1c-6.558 34.71 11.74 67.29 40.84 72.72s58.05-18.35 64.61-53.05c6.558-34.71-11.74-67.29-40.84-72.72-29.1-5.425-58.05 18.35-64.61 53.05zm-7.312-204.6c-2.328 47.49 28.18 88.34 68.08 91.16 39.9 2.821 74.19-33.44 76.52-80.93 2.329-47.49-28.18-88.34-68.08-91.16-39.91-2.821-74.19 33.44-76.52 80.93z"/>
 </g>
</svg>