<svg width="62" height="22" fill="none" xmlns="http://www.w3.org/2000/svg"><path d="M.3 21V2.52h6.096V21H.3Zm8.391 0V6.912l3.048.624 3.048-.624V21H8.691ZM11.74 6.192c-.688 0-1.288-.112-1.8-.336-.512-.224-.908-.544-1.188-.96-.28-.424-.42-.92-.42-1.488s.14-1.06.42-1.476c.28-.424.676-.748 1.188-.972.512-.224 1.112-.336 1.8-.336s1.288.112 1.8.336c.512.224.908.548 1.188.972.28.416.42.908.42 1.476s-.14 1.064-.42 1.488c-.28.416-.676.736-1.188.96-.512.224-1.112.336-1.8.336Zm16.527.576c1.328 0 2.468.268 3.42.804a5.307 5.307 0 0 1 2.184 2.256c.504.968.756 2.1.756 3.396V21H28.53v-6.912c0-.768-.212-1.36-.636-1.776-.424-.416-1.02-.624-1.788-.624-.824 0-1.468.24-1.932.72-.456.48-.684 1.152-.684 2.016V21h-6.096v-8.856l-.96-4.944h6.096l.432 2.616c.608-1 1.372-1.756 2.292-2.268.92-.52 1.924-.78 3.012-.78Zm21.38 5.832 5.003 8.4h-7.008l-1.968-3.804L42.385 21H36.77V2.52h6.096V13.5l4.56-6.3h6.888l-4.668 5.4Zm6.832 1.44L55.446 3h6.384l-1.032 11.04h-4.32Zm2.16 7.248c-.64 0-1.208-.124-1.704-.372a2.745 2.745 0 0 1-1.14-1.056c-.264-.456-.396-.98-.396-1.572 0-.592.132-1.116.396-1.572a2.745 2.745 0 0 1 1.14-1.056c.496-.248 1.064-.372 1.704-.372.64 0 1.204.124 1.692.372.496.248.876.6 1.14 1.056.272.456.408.98.408 1.572 0 .592-.136 1.116-.408 1.572a2.652 2.652 0 0 1-1.14 1.056c-.488.248-1.052.372-1.692.372Z" fill="#fff"/></svg>