<svg data-name="Layer 1" viewBox="0 0 43.57 48" xmlns="http://www.w3.org/2000/svg"><defs><style>.cls-1 {
        fill: #b8aeff;
      }

      .cls-2 {
        fill: #8d7cf7;
      }

      .cls-3 {
        fill: #0e0e0e;
      }

      .cls-4 {
        fill: #6354cc;
      }</style></defs><path class="cls-4" d="m28.7 7.29s-5.38-8.31-7.93-7.19 3.89 10.57 3.89 10.57l4.05-3.38z"/><path class="cls-2" d="m1.52,37.41c10.12,19.16,44.26,10.73,35-12.49-1.48-3.71-3.88-7.27-3.88-7.27,11.53,6.84,14.96,1.73,5.26-6.5-9.7-8.22-15.45-8.25-14.8-3.57.61,4.41,6.92,27.14-6.75,27.86-.52.03-.71-.67-.25-.89,5.7-2.78,7.17-11.7-.78-15.46C6.31,14.83-3.93,27.09,1.52,37.41Z"/><path class="cls-1" d="m12.12,46.64c1.15-1.59,6.66-3.88,13.84-2.75,1.16.18,2.22-.66,2.24-1.83.07-3.79,1.05-11.49,7.19-17.17.39-.36,1.04-.21,1.23.29,6.74,17.44-11.08,26.42-24.51,21.46Z"/><path class="cls-4" d="m13.48,35.87c.57-.09,1.03-.57,1.08-1.18.05-.71-.48-1.32-1.19-1.38-2.24-.16-3.71-1-4.05-2.29-.25-.97.19-2.09,1.06-2.66,1.01-.66,2.31-.44,3.67.62.56.44,1.37.34,1.8-.22.44-.56.34-1.37-.22-1.8-2.23-1.74-4.72-2.02-6.66-.74-1.78,1.17-2.66,3.41-2.13,5.45.3,1.15,1.51,3.85,6.35,4.2.1,0,.2,0,.3-.01Z"/><path class="cls-3" d="m31.45,12.97c1.51-1.22,1.12-3.6-.69-4.29s-3.7.84-3.39,2.75,2.57,2.76,4.08,1.54Z"/><path class="cls-4" d="m25.02,24.67c3.17,2.76,7.02,3.1,9.99,2.63.8-.13,1.53-.32,2.16-.53-.18-.6-.4-1.21-.65-1.84-.08-.2-.16-.38-.24-.58-2,.63-7.55,1.77-11.23-3.47.05,1.28.06,2.55-.03,3.79Z"/><path class="cls-4" d="m21.79,33.29c1.18,3.47,3.65,6.21,7.25,7.99,1.78.88,3.48,1.34,4.64,1.59.72-.7,1.38-1.45,1.94-2.27-.06-.03-.13-.03-.19-.04-.41-.04-10.01-1.03-11.62-9.67-.02-.12-.06-.22-.11-.33-.48,1.06-1.1,1.99-1.91,2.74Z"/><path class="cls-4" d="m16.24,47.72c.9.14,1.81.23,2.72.27-.26-.95-2.15-8.34.59-13.23-.9.38-1.94.62-3.13.69-1.63,4.64-.7,10.01-.18,12.28Z"/><path class="cls-4" d="m.66,35.4c.22.68.51,1.35.86,2.01.17.33.35.64.54.95.47-1.26,1.96-4.37,5.56-5.04.25-.04.51-.07.77-.1.71-.06,1.23-.69,1.17-1.39-.01-.12-.04-.23-.08-.33-.03-.07-.06-.15-.1-.21-.24-.41-.71-.67-1.21-.63-.52.05-1.01.13-1.47.24-3.1.73-4.97,2.76-6.04,4.51Z"/><path class="cls-4" d="m9.28,26.03c0,.27,0,.43,0,.47-.05.7.48,1.32,1.18,1.37.11,0,.21,0,.3-.01.58-.09,1.03-.57,1.08-1.16.03-.37.03-.79-.01-1.27-.14-2.04-.98-4.86-3.37-6.67-.94.32-1.84.79-2.68,1.39,3.12,1.35,3.48,4.65,3.51,5.88Z"/><path class="cls-4" d="m36.53,19.65c7.62,3.24,9.58-.57,3.25-6.8-.14,2.63-2.04,5.33-3.25,6.8Z"/></svg>
